<svg id="レイヤー_1" data-name="レイヤー 1" xmlns="http://www.w3.org/2000/svg" width="30mm" height="30mm" viewBox="0 0 85.04 85.04"><defs><style>.cls-1{fill:#231815;}.cls-2{fill:#fff;}</style></defs><circle class="cls-1" cx="42.52" cy="42.52" r="42.52"/><path class="cls-2" d="M42.52,85A42.54,42.54,0,0,0,81.77,58.9L53.45,47.1l.39-4a2.73,2.73,0,0,0-3.6-2.5l-2.69.9a40.47,40.47,0,0,0,6-9.86A30.33,30.33,0,0,0,55.73,20c-.22-1.14-.17-8-3.46-11.22-.3-.29-.7.08-.54.47l0,.07c.74,3.58,1.34,7.08.81,10.55A27.79,27.79,0,0,1,49.67,29l-2.79-9.45a1.45,1.45,0,1,0-2.79.82l3.55,12A47.09,47.09,0,0,1,43.28,38c-1.15,1.3-2.44,2.49-3.66,3.73-.59.65-1.2,1.27-1.76,2l-1.35.94c-2.72.88-5.52,2.16-6,3.88-3,9.82-11.47,2.25-10.24,12.66C39.16,59.84,43.38,69.34,41.42,85,41.78,85,42.15,85,42.52,85Z"/></svg>