<svg id="レイヤー_1" data-name="レイヤー 1" xmlns="http://www.w3.org/2000/svg" viewBox="0 0 475.09 247.07"><defs><style>.cls-1{fill:#fff;}.cls-2{fill:#231815;}</style></defs><rect class="cls-1" x="255.17" y="163.02" width="45.63" height="45.63"/><polygon class="cls-2" points="329.39 34.56 350.04 34.56 352.49 16.86 352.32 16.86 352.49 16.83 345.57 0 339.87 11.68 331.84 16.86 323.83 22.88 314.73 24.44 329.39 34.55 329.39 34.56"/><path class="cls-2" d="M468,36.66l-4.68,12.76c-8.67-2.35-9.43-2-14.69-2-10.77,0-20.19,3.09-28,9.44a38.65,38.65,0,0,0-8.81,9.57,29.1,29.1,0,0,0-5.22-10c-5.69-6.78-13.78-10.17-24.4-10.17q-22.44,0-36.54,19.63l2.42-17.42L341.2,31.56,323.07,80.18c.85-9.51-1.27-17.41-6.37-23.8-5.7-6.78-13.78-10.17-24.4-10.17q-21.93,0-35.89,18.72l5.3-17.84-6.54-15.94c-8,0-22.74,17.57-35,23.32L216.74,79h-2.67q.51-14.7-6-24.51c-5.39-8-14.47-12.69-27.22-14.31l-11.59,1.54-10.55,6.84,15.37,10.65c12.28,1.48,18.66,8.06,19.07,19.79H187V72.59a58,58,0,0,0-19,5.65q-2.16-13.65-7.66-21c-5.12-6.64-12.62-10-22.79-10-12.54,0-23.4,3.83-32.44,11.65s-14.44,18-16.18,30.53a45,45,0,0,0,1.69,21.09H58.87l13-93.65L64.93,0l-4,16.86H50.76L36.52,119.6,20.2,121.49,34.86,131.6H82.55L20.1,229.82l-1.62-2.68L0,224.68l15.6,12.2h0l17.6,9.29,17.16-27H80l2-14.59h4.61l8.25,28-8.81,5.21,13,8.94,9.5-3.9.78.66H130l7.76-56.05c5.24-6.93,10.73-10.32,16.63-10.32,4.72,0,8.18,1.62,10.51,5s3.09,7.53,2.41,12.39L161.39,237l-11.69-7,10.79,13.49h59.26l7.79-56.19c3.89-5.76,9-8.56,15.05-8.56q6.41,0,9.06,4.87c1.67,2.8,2.19,6.49,1.58,10.91L247.35,237l-11.69-7,10.8,13.5h20l6.78-49a40,40,0,0,0,.28-8.4c3.92-4.87,8.69-7.38,14.15-7.38,4.27,0,7.29,1.62,9.2,4.87,1.68,2.8,2.2,6.49,1.59,10.91L292.63,237l-11.69-7,10.79,13.47v0h20l1-7a25.3,25.3,0,0,0,2.33,2.56c5.6,5.31,12.9,8,22.05,8q9.42,0,25.1-5.79l5,2.24h20.65l1.64-11.84h8.38l1.11,1.89-4.15,4.48,11.88,8.7h0A54.1,54.1,0,0,0,422,231.88a43.09,43.09,0,0,0,7.46-18.73A29.7,29.7,0,0,0,427.71,198a65.18,65.18,0,0,0-5.61-9.59c-2.07-3.1-3-5.75-2.73-8,.8-5.75,4-9.73,9.5-12.09h0c21.2-7.67,33.63-24.86,37.25-51l9-64.75Z"/><path class="cls-1" d="M415.59,155.43l-3.78-19.61c12.8-4,20.48-14.75,22.87-32L441.45,55a47,47,0,0,0-6.28-.44c-11.51,0-17.93,4.87-19.3,14.75a19.33,19.33,0,0,0,3.07,14A20.27,20.27,0,0,0,430.12,92l-9.06,19.62A37.38,37.38,0,0,1,400.45,95.4c-4.81-7.81-6.56-16.51-5.21-26.25a38.11,38.11,0,0,1,14.64-25.81c7.81-6.34,17.23-9.44,28-9.44,6.34,0,15.09,1.77,26.42,5.16l-9,64.75C451.57,131,438.27,148.2,415.59,155.43Z"/><path class="cls-2" d="M437.88,33.9c6.34,0,15.09,1.77,26.42,5.16l-9,64.75c-3.76,27.14-17.06,44.39-39.74,51.62l-3.78-19.61c12.8-4,20.48-14.75,22.87-32L441.45,55a47,47,0,0,0-6.28-.44c-11.51,0-17.93,4.87-19.3,14.75a19.33,19.33,0,0,0,3.07,14A20.27,20.27,0,0,0,430.12,92l-9.06,19.62A37.38,37.38,0,0,1,400.45,95.4c-4.81-7.81-6.56-16.51-5.21-26.25a38.11,38.11,0,0,1,14.64-25.81c7.81-6.34,17.23-9.44,28-9.44m0-3.37c-11.66,0-21.8,3.43-30.13,10.19a41.63,41.63,0,0,0-15.85,28,41.92,41.92,0,0,0,5.68,28.48A40.7,40.7,0,0,0,420,114.83l2.86,1,1.27-2.74,8.39-18.18-1.17,8.49c-2.2,15.85-9.11,25.69-20.54,29.25l-2.88.89.57,3,3.77,19.62.72,3.73,3.62-1.16c24-7.63,38.12-25.93,42.06-54.37l9-64.74.4-2.87-2.77-.83c-11.92-3.57-20.88-5.3-27.39-5.3Zm-4.62,59-2.05-.69a16.93,16.93,0,0,1-9.4-7.29l0-.06,0-.06a15.86,15.86,0,0,1-2.52-11.65c1.13-8.19,6.05-11.84,16-11.84.81,0,1.63,0,2.46.08l-4.37,31.51Z"/><path class="cls-1" d="M374.52,118.12l6.78-49c.68-4.87-.08-9-2.41-12.39s-5.8-5-10.51-5c-5.9,0-11.39,3.39-16.63,10.32L344,118.12H323.34l8.46-61.06q14.65-24.35,39.65-24.34c10.62,0,18.71,3.39,24.4,10.18,5.53,6.93,7.57,15.63,6.1,26.25l-6.78,49Z"/><path class="cls-2" d="M371.45,32.72c10.62,0,18.71,3.39,24.4,10.18,5.53,6.93,7.57,15.63,6.1,26.25l-6.78,49H374.52l6.78-49c.68-4.87-.08-9-2.41-12.39s-5.8-5-10.51-5c-5.9,0-11.39,3.39-16.63,10.32L344,118.12H323.34l8.46-61.06q14.65-24.35,39.65-24.34m0-3.37c-17.85,0-32.16,8.74-42.54,26l-.35.59-.1.68L320,117.65l-.53,3.84h27.46l.4-2.91L355,63.42c4.39-5.58,8.78-8.3,13.41-8.3,3.66,0,6,1.09,7.73,3.55,1.82,2.64,2.42,5.92,1.85,10l-6.78,49-.53,3.84H398.1l.41-2.91,6.78-49c1.59-11.47-.7-21.16-6.8-28.81l0,0,0,0c-6.34-7.55-15.42-11.38-27-11.38Z"/><path class="cls-1" d="M318.6,21.07l2.45-17.7H341.7l-2.45,17.7Zm-13.44,97.05,11.52-83.19h20.65L325.8,118.12Z"/><path class="cls-2" d="M341.7,3.37l-2.45,17.7H318.6l2.45-17.7H341.7m-4.37,31.56L325.8,118.12H305.16l11.52-83.19h20.65M345.57,0H318.12l-.4,2.91-2.46,17.7-.53,3.83h27.46l.4-2.91L345,3.83,345.57,0ZM341.2,31.56H313.75l-.41,2.91-11.52,83.18-.53,3.84h27.45l.4-2.91L340.67,35.4l.53-3.84Z"/><path class="cls-1" d="M284.58,118.12l6.78-49c.67-4.87-.08-9-2.41-12.39s-5.8-5-10.52-5c-5.9,0-11.38,3.39-16.62,10.32l-7.76,56.05H233.4l8.46-61.06q14.65-24.35,39.65-24.34c10.62,0,18.71,3.39,24.4,10.18,5.53,6.93,7.57,15.63,6.1,26.25l-6.79,49Z"/><path class="cls-2" d="M281.51,32.72c10.62,0,18.71,3.39,24.4,10.18,5.53,6.93,7.57,15.63,6.1,26.25l-6.79,49H284.58l6.78-49c.67-4.87-.08-9-2.41-12.39s-5.8-5-10.52-5c-5.9,0-11.38,3.39-16.62,10.32l-7.76,56.05H233.4l8.46-61.06q14.65-24.35,39.65-24.34m0-3.37c-17.85,0-32.16,8.74-42.54,26l-.36.59-.09.68-8.46,61.06-.53,3.84H257l.41-2.91L265,63.42c4.39-5.58,8.78-8.3,13.4-8.3,3.66,0,6.05,1.09,7.74,3.55,1.81,2.64,2.42,5.92,1.85,10l-6.78,49-.53,3.84h27.45l.4-2.91,6.79-49c1.59-11.47-.7-21.16-6.8-28.81l0,0,0,0c-6.34-7.55-15.41-11.38-27-11.38Z"/><path class="cls-1" d="M245.4,52.19a37.36,37.36,0,0,0-7.13-.74,33.51,33.51,0,0,0-9.93,1.48l-9,65.19H198.66L209.34,41c12.3-5.75,22.45-8.7,30.41-8.7a48,48,0,0,1,11.17,1.33Z"/><path class="cls-2" d="M239.75,32.28a48,48,0,0,1,11.17,1.33L245.4,52.19a37.36,37.36,0,0,0-7.13-.74,33.51,33.51,0,0,0-9.93,1.48l-9,65.19H198.66L209.34,41c12.3-5.75,22.45-8.7,30.41-8.7m0-3.37c-8.44,0-18.85,2.95-31.84,9l-1.66.77L206,40.52l-10.68,77.13-.54,3.84h27.46l.4-2.91,8.73-63a30.41,30.41,0,0,1,6.9-.78,33.88,33.88,0,0,1,6.49.68l3,.58.87-2.93,5.52-18.58,1-3.42-3.46-.82a51.24,51.24,0,0,0-12-1.42Z"/><path class="cls-1" d="M166.3,121.05c-9.14,0-16.44-2.66-22.05-8-5.86-5.6-8.25-12.83-7-21.82A32.86,32.86,0,0,1,151,68.54c6.74-5,15.14-8.11,25.2-9.44l0,19a28.38,28.38,0,0,0-11.42,3.69c-4,2.36-6.36,5.45-6.89,9.29a6.74,6.74,0,0,0,3,7.08,13.26,13.26,0,0,0,8,2.21,34.05,34.05,0,0,0,9.5-1.47L182,72.82c2.27-16.37-4-25.37-18.66-27.14l6.77-19C182.84,28.28,191.92,33,197.31,41s7.14,18.73,5.32,31.86l-5.58,40.26Q177.37,121,166.3,121.05Z"/><path class="cls-2" d="M170.09,26.66C182.84,28.28,191.92,33,197.31,41s7.14,18.73,5.32,31.86l-5.58,40.26q-19.68,8-30.75,8c-9.14,0-16.44-2.66-22.05-8-5.86-5.6-8.25-12.83-7-21.82A32.86,32.86,0,0,1,151,68.54c6.74-5,15.14-8.11,25.2-9.44l0,19a28.38,28.38,0,0,0-11.42,3.69c-4,2.36-6.36,5.45-6.89,9.29a6.74,6.74,0,0,0,3,7.08,13.26,13.26,0,0,0,8,2.21,34.05,34.05,0,0,0,9.5-1.47L182,72.82c2.27-16.37-4-25.37-18.66-27.14l6.77-19M167.82,23l-.91,2.56-6.76,19-1.41,4,4.18.51c6,.72,10.34,2.78,12.91,6.12.14.18.27.36.4.55l-.46.06c-10.66,1.41-19.67,4.8-26.77,10.08a36.07,36.07,0,0,0-15.09,25c-1.39,10,1.31,18.32,8,24.73,6.24,5.91,14.44,8.9,24.38,8.9,7.89,0,18.36-2.68,32-8.21l1.8-.73.27-1.93L206,73.28c1.93-13.9,0-25.4-5.85-34.18s-15.86-14-29.61-15.79L167.82,23ZM168.87,97a10,10,0,0,1-6-1.56l-.06,0-.06-.05c-1-.65-1.85-1.57-1.53-3.81.38-2.75,2.1-5,5.26-6.85a25.28,25.28,0,0,1,10-3.24l.82-.08-2,14.84a29.27,29.27,0,0,1-6.47.79Z"/><path class="cls-1" d="M119.25,84.49l-6.59-17.4,20.69-8.85a10.47,10.47,0,0,0-9.33-5c-6.78,0-12.38,2.07-17,6.34a26.93,26.93,0,0,0-8.33,16.52c-1,7.23.37,13.28,4,18.29s8.72,8.41,15.6,9.88l-7.19,18.88c-11.45-2.51-20.28-8-26.33-16.52-6.06-8.4-8.31-18.73-6.66-30.67q2.61-18.81,16.18-30.53c9-7.82,19.9-11.66,32.44-11.66,10.17,0,17.67,3.4,22.79,10q6.18,8.19,8.14,24.34Z"/><path class="cls-2" d="M126.72,33.75c10.17,0,17.67,3.4,22.79,10q6.18,8.19,8.14,24.34l-38.4,16.37-6.59-17.4,20.69-8.85a10.47,10.47,0,0,0-9.33-5c-6.78,0-12.38,2.07-17,6.34a26.93,26.93,0,0,0-8.33,16.52c-1,7.23.37,13.28,4,18.29s8.72,8.41,15.6,9.88l-7.19,18.88c-11.45-2.51-20.28-8-26.33-16.52-6.06-8.4-8.31-18.73-6.66-30.67q2.61-18.81,16.18-30.53c9-7.82,19.9-11.66,32.44-11.66m0-3.37c-13.41,0-25.07,4.2-34.65,12.47S76.61,62.16,74.76,75.47c-1.77,12.82.67,24,7.27,33.11,6.44,9.13,16,15.14,28.34,17.85l2.84.62,1-2.72,7.19-18.88,1.4-3.67L119,101c-6-1.3-10.47-4.08-13.52-8.5s-4.26-9.62-3.39-15.91A23.42,23.42,0,0,1,109.37,62c3.91-3.66,8.7-5.44,14.65-5.44a8.42,8.42,0,0,1,3.23.59L111.33,64l-3,1.27,1.15,3,6.58,17.4L117.34,89l3.23-1.38L159,71.22l2.33-1L161,67.71c-1.37-11.32-4.33-20-8.78-26-5.84-7.55-14.41-11.37-25.49-11.37Z"/><path class="cls-1" d="M24.07,118.12,40,3.37H61.06L48.08,97H92.62L89.7,118.12Z"/><path class="cls-2" d="M61.06,3.37,48.08,97H92.62L89.7,118.12H24.07L40,3.37H61.06M64.93,0H37l-.4,2.91L20.73,117.65l-.53,3.84H92.64l.4-2.91L96,97.49l.53-3.84H52L64.4,3.83,64.93,0Z"/><path class="cls-1" d="M411.19,218.39A54,54,0,0,1,396,233.29l-9.79-16.67c7-4.57,10.85-10.17,11.81-17.11.39-2.8-.51-5.9-2.55-9.29-3.73-6.05-5.49-9.29-5.62-9.44a25,25,0,0,1-1.91-13.86,38.58,38.58,0,0,1,7.86-18.44A41.36,41.36,0,0,1,412,136.09l6.11,18.73c-5.49,2.36-8.7,6.35-9.5,12.1-.3,2.21.66,4.87,2.74,8a66.33,66.33,0,0,1,5.6,9.59,29.7,29.7,0,0,1,1.73,15.19A43,43,0,0,1,411.19,218.39Z"/><path class="cls-2" d="M412,136.09l6.11,18.73c-5.49,2.36-8.7,6.35-9.5,12.1-.3,2.21.66,4.87,2.74,8a66.33,66.33,0,0,1,5.6,9.59,29.7,29.7,0,0,1,1.73,15.19,43,43,0,0,1-7.46,18.73A54,54,0,0,1,396,233.29l-9.79-16.67c7-4.57,10.85-10.17,11.81-17.11.39-2.8-.51-5.9-2.55-9.29-3.73-6.05-5.49-9.29-5.62-9.44a25,25,0,0,1-1.91-13.86,38.58,38.58,0,0,1,7.86-18.44A41.36,41.36,0,0,1,412,136.09m2.06-4.57L410.62,133a44.73,44.73,0,0,0-17.47,13.4,41.91,41.91,0,0,0-8.55,20.06,28.74,28.74,0,0,0,2.17,15.7l.2.44.15.17.32.57c.8,1.39,2.47,4.29,5.17,8.65,1.63,2.73,2.34,5.12,2.07,7.06-.82,5.91-4.19,10.74-10.32,14.75l-2.68,1.76,1.62,2.77L393.09,235l1.8,3.06,3-2A56.94,56.94,0,0,0,414,220.28a46.06,46.06,0,0,0,8-20.16,33.25,33.25,0,0,0-1.93-16.88A67.53,67.53,0,0,0,414.13,173c-2.16-3.21-2.31-4.91-2.21-5.64.63-4.53,3-7.53,7.49-9.46l2.83-1.21-1-2.93-6.11-18.73L414,131.52Z"/><path class="cls-1" d="M356.47,230l15.9-114.74H393L377.12,230Z"/><path class="cls-2" d="M393,115.3,377.12,230H356.47l15.9-114.74H393m3.87-3.37H369.44l-.41,2.91L353.14,229.58l-.54,3.84h27.46l.4-2.91,15.9-114.75.53-3.83Z"/><path class="cls-1" d="M326.34,233.58c-9.14,0-16.45-2.65-22-8-5.86-5.6-8.25-12.83-7-21.83a32.87,32.87,0,0,1,13.77-22.71c6.74-5,15.13-8.11,25.2-9.44l0,19a28.79,28.79,0,0,0-11.43,3.69c-4,2.36-6.36,5.46-6.89,9.29a6.74,6.74,0,0,0,3,7.08,13.21,13.21,0,0,0,8,2.21,33.94,33.94,0,0,0,9.49-1.47L342,185.35c2.27-16.37-4-25.36-18.66-27.13l6.77-19c12.75,1.62,21.83,6.34,27.22,14.31s7.14,18.73,5.32,31.85l-5.58,40.27Q337.4,233.59,326.34,233.58Z"/><path class="cls-2" d="M330.13,139.19c12.75,1.62,21.83,6.34,27.22,14.31s7.14,18.73,5.32,31.85l-5.58,40.27q-19.69,8-30.75,8c-9.14,0-16.45-2.65-22-8-5.86-5.6-8.25-12.83-7-21.83a32.87,32.87,0,0,1,13.77-22.71c6.74-5,15.13-8.11,25.2-9.44l0,19a28.79,28.79,0,0,0-11.43,3.69c-4,2.36-6.36,5.46-6.89,9.29a6.74,6.74,0,0,0,3,7.08,13.21,13.21,0,0,0,8,2.21,33.94,33.94,0,0,0,9.49-1.47L342,185.35c2.27-16.37-4-25.36-18.66-27.13l6.77-19m-2.27-3.68-.91,2.55-6.77,19-1.41,4,4.19.5c6,.73,10.33,2.79,12.9,6.12.14.18.28.37.41.56l-.46.06c-10.67,1.4-19.68,4.79-26.77,10.07a36.1,36.1,0,0,0-15.1,25c-1.38,10,1.31,18.32,8,24.73,6.24,5.91,14.44,8.9,24.38,8.9,7.88,0,18.36-2.69,32-8.21l1.81-.74.27-1.93L366,185.82c1.92-13.91-.05-25.4-5.85-34.18s-15.87-14-29.61-15.79l-2.69-.34Zm1.05,74.05a9.92,9.92,0,0,1-6-1.56l-.06,0-.07,0c-1-.66-1.84-1.57-1.53-3.81.38-2.75,2.1-5,5.26-6.85A25,25,0,0,1,336.61,194l.82-.08-2.06,14.83a28.6,28.6,0,0,1-6.46.79Z"/><path class="cls-1" d="M280.94,230l6.78-49c.61-4.43.09-8.11-1.58-10.92-1.91-3.24-4.93-4.86-9.21-4.86-5.46,0-10.23,2.5-14.15,7.37a40.14,40.14,0,0,1-.28,8.41l-6.78,49H235.66l6.78-49c.62-4.43.09-8.11-1.58-10.92q-2.66-4.86-9.06-4.86c-6.05,0-11.16,2.8-15.05,8.55L209,230H188.9L197.36,169q14.22-24.33,37-24.33c8.85,0,16,2.95,21.19,8.85,7.46-5.9,15.54-8.85,24.09-8.85,10,0,17.63,3.69,22.82,10.91,5,6.79,6.73,15.34,5.32,25.52L301,230Z"/><path class="cls-2" d="M279.64,144.65c10,0,17.63,3.69,22.82,10.91,5,6.79,6.73,15.34,5.32,25.52L301,230H280.94l6.78-49c.61-4.43.09-8.11-1.58-10.92-1.91-3.24-4.93-4.86-9.21-4.86-5.46,0-10.23,2.5-14.15,7.37a40.14,40.14,0,0,1-.28,8.41l-6.78,49H235.66l6.78-49c.62-4.43.09-8.11-1.58-10.92q-2.66-4.86-9.06-4.86c-6.05,0-11.16,2.8-15.05,8.55L209,230H188.9L197.36,169q14.22-24.33,37-24.33c8.85,0,16,2.95,21.19,8.85,7.46-5.9,15.54-8.85,24.09-8.85m0-3.37A40.81,40.81,0,0,0,255.9,149c-5.62-5.15-12.84-7.76-21.54-7.76-16.4,0-29.83,8.75-39.91,26l-.33.58-.1.66-8.45,61.06-.54,3.84H211.9l.4-2.91L220,175.12c3.14-4.34,7-6.45,11.82-6.45,3.91,0,5.31,1.66,6.09,3.1l0,.07,0,.06c1.27,2.11,1.65,5,1.14,8.72l-6.78,49-.53,3.84h26.86l.41-2.91,6.78-49a44.18,44.18,0,0,0,.38-7.71c3.09-3.43,6.69-5.16,10.71-5.16,3.05,0,5,1,6.3,3.2s1.66,5.07,1.15,8.75l-6.78,49-.53,3.84h26.86l.41-2.91,6.78-49c1.53-11.07-.46-20.48-5.93-28-5.86-8.15-14.46-12.29-25.55-12.29Z"/><path class="cls-1" d="M183.06,133l2.45-17.7h20.65L203.7,133Zm-13.45,97,11.53-83.18h20.64L190.26,230Z"/><path class="cls-2" d="M206.16,115.3,203.7,133H183.06l2.45-17.7h20.65m-4.38,31.56L190.26,230H169.61l11.53-83.18h20.64M210,111.93H182.57l-.4,2.91-2.45,17.69-.53,3.84h27.45l.4-2.91,2.46-17.7.53-3.83Zm-4.38,31.56H178.2l-.4,2.91-11.53,83.18-.53,3.84H193.2l.4-2.91,11.52-83.19.53-3.83Z"/><path class="cls-1" d="M149.7,230l6.78-49c.68-4.87-.08-9-2.41-12.39s-5.79-5-10.51-5c-5.9,0-11.39,3.4-16.62,10.33l-7.77,56H98.52L107,169q14.65-24.33,39.66-24.33c10.61,0,18.7,3.39,24.4,10.17,5.53,6.94,7.56,15.64,6.09,26.26l-6.78,49Z"/><path class="cls-2" d="M146.64,144.65c10.61,0,18.7,3.39,24.4,10.17,5.53,6.94,7.56,15.64,6.09,26.26l-6.78,49H149.7l6.78-49c.68-4.87-.08-9-2.41-12.39s-5.79-5-10.51-5c-5.9,0-11.39,3.4-16.62,10.33l-7.77,56H98.52L107,169q14.65-24.33,39.66-24.33m0-3.37c-17.86,0-32.17,8.73-42.55,26l-.35.59-.1.68-8.46,61.06-.53,3.84h27.46l.4-2.91,7.64-55.16c4.4-5.59,8.79-8.3,13.41-8.3,3.66,0,6,1.09,7.73,3.55,1.82,2.64,2.42,5.91,1.86,10l-6.79,49-.53,3.84h27.46l.4-2.91,6.78-49c1.59-11.47-.7-21.17-6.8-28.82l0,0,0,0c-6.34-7.55-15.42-11.38-27-11.38Z"/><path class="cls-1" d="M88.24,233.29,67.29,162.05,53,184.62H72.13L69.2,205.71H39.56l-17.16,27L4.81,223.41,75.52,112.2l33.21,112.68Z"/><path class="cls-2" d="M75.52,112.2l33.21,112.68-20.49,8.41L67.29,162.05,53,184.62H72.13L69.2,205.71H39.56l-17.16,27L4.81,223.41,75.52,112.2m1.14-8.07-4,6.26L2,221.6l-2,3.08,3.23,1.71,17.59,9.29,2.75,1.45,1.67-2.62,16.17-25.43H72.14l.4-2.91,1.35-9.72L85,234.24l1,3.59,3.46-1.42L110,228l2.81-1.15-.86-2.92L78.75,111.25l-2.09-7.12ZM59.09,181.25l7.06-11.12,3.27,11.12Z"/><path class="cls-1" d="M278.21,199.22a1.41,1.41,0,0,1-.49-.09,1.35,1.35,0,0,1-.76-1.75c.1-.25.19-.55.3-.88.94-2.93,2.7-8.38,13.25-14.26,8.31-4.62,6.49-13.71,6.47-13.81a1.35,1.35,0,0,1,2.64-.55c0,.11,2.23,11.14-7.8,16.72-9.62,5.36-11.16,10.15-12,12.73-.13.39-.24.74-.36,1A1.35,1.35,0,0,1,278.21,199.22Z"/><rect class="cls-1" x="254.11" y="45.51" width="39.15" height="72.6"/><path class="cls-2" d="M270.45,56.23l-2.67-4.93a2.75,2.75,0,0,0-4.78-.09l-1.4,2.37s-7.14,1.79-8.48,6.31c-2.16,7.29-10.18,3.25-7.8,11.79h0s10.43.57,15.82,9.67a12.79,12.79,0,0,1,1.72,6.84c-.1,4.57-1.25,13.83-6.68,30.75l28.65-.82,6.46-48.49Z"/><rect class="cls-1" x="217.17" y="160.88" width="28.09" height="29.53"/><rect class="cls-1" x="205.21" y="191.33" width="13.66" height="38.71"/><path class="cls-1" d="M212.46,198.8c-5-12-14.22-11.64-14.61-11.62l-1.64,0-.16-.48c-1.69-5.22-.48-6.38,1.71-7.68a7.08,7.08,0,0,0,3.75-4.73l1.29.39a8.46,8.46,0,0,1-4.35,5.5c-1.61.95-2.53,1.49-1.26,5.63l.6,0c.09,0,10.56-.49,15.92,12.46Z"/><path class="cls-2" d="M289.25,73.72h0a1.36,1.36,0,0,1-1.11-1.55c1.18-7.34,1.13-10.32-1-13.54s-5.58-3.9-7.41-4.09a1.34,1.34,0,0,1-1.2-1.29h0a1.35,1.35,0,0,1,1.48-1.4c2.33.24,6.75,1.24,9.39,5.31s2.56,8,1.37,15.45A1.35,1.35,0,0,1,289.25,73.72Z"/><rect class="cls-1" x="117.95" y="157.45" width="39.15" height="72.6"/><polygon class="cls-1" points="440.74 63.67 410.14 72.58 412.63 47.98 440.74 47.98 440.74 63.67"/><path class="cls-2" d="M418.35,67.29,423,66.12l13.18-23.87c3.46,8.11-4.71,24.29-4.71,24.29l13.08-23.9c3.12,10.88-6.35,25.69-6.35,25.69l-1,4.17-2.77,30.41c1.74-12-10.21-12.65-10.21-12.65-16.77-1-17.09-12.52-17.09-12.52C414.35,73.76,412.38,68.82,418.35,67.29Z"/><polygon class="cls-1" points="166.84 99.92 147.97 103.92 147.97 77.09 176.23 78.13 166.84 99.92"/><path class="cls-1" d="M182,81a72.67,72.67,0,0,0-6.69-3l.5-1.25a69,69,0,0,1,6.9,3.11Z"/><path class="cls-2" d="M292.78,185.27c10-5.58,7.82-16.61,7.79-16.72a1.35,1.35,0,0,0-2.64.55c.08.38,1.8,9.22-6.47,13.82a35.93,35.93,0,0,0-13.78,14.23l-12.61-5.55L262.51,230H235.09l6.86-45c1.14-6.8,1.22-10.68-1-14.9a9.45,9.45,0,0,0-7.83-4.85,1.34,1.34,0,0,0-1.43,1.46h0A1.34,1.34,0,0,0,232.9,168a6.87,6.87,0,0,1,5.65,3.43c1.58,3,1.87,5.68,1,11.49l-20.69-13v-7.36l-7.42,5.64s-7.14,1.78-8.49,6.31c-2.16,7.29-9.48,4.61-5.47,11.54l1.12,0s10.17-.58,15.21,11.57c0,0,4,6.94-6.33,32.45H150l5.83-44.29-21.18-8.83.29-3a2,2,0,0,0-2.67-1.86l-2,.67a30,30,0,0,0,4.46-7.31,22.56,22.56,0,0,0,1.61-8.57c-.17-.84-.13-5.9-2.57-8.32-.22-.21-.52.06-.39.35v0a22.21,22.21,0,0,1,.6,7.82,20.85,20.85,0,0,1-2.14,6.73l-2.07-7a1.08,1.08,0,0,0-2.07.61l2.63,8.93a34.61,34.61,0,0,1-3.23,4.16c-.85,1-1.81,1.84-2.71,2.76-.44.48-.89.94-1.31,1.46l-1,.7c-2,.65-4.09,1.6-4.47,2.87-2.21,7.28-8.51,1.67-7.59,9.39,22.67-1.62,16.9,17.76,9.24,43.52l1.64,0,.07,12.7H294.54L294.47,230H279.36l3.55-30.56-2.76-1.22A33.89,33.89,0,0,1,292.78,185.27Z"/><path class="cls-2" d="M180.92,80.52s-16.27-9.53-24,1c0,0-7.66,2.06-8.33,7l8.11-.78,9.06,12.45h1.38l1.44-3.46-.29.18Z"/><path class="cls-2" d="M155.81,186.17l-2.66-.45c1.39-8.32,1.47-11.46-.75-14.87-2-3.11-5.57-3.89-7.4-4.09a1.34,1.34,0,0,1-1.2-1.29h0a1.35,1.35,0,0,1,1.48-1.4c2.33.24,6.75,1.24,9.39,5.31C157.51,173.76,157.2,177.86,155.81,186.17Z"/><circle class="cls-2" cx="275.03" cy="53.42" r="1.25"/><circle class="cls-2" cx="228.62" cy="166.96" r="1.25"/><circle class="cls-2" cx="140.13" cy="165.72" r="1.25"/></svg>